<svg xmlns="http://www.w3.org/2000/svg" viewBox="0 0 260 64" role="img" aria-label="MT5 Hedge">
  <defs>
    <linearGradient id="bg" x1="10" y1="8" x2="54" y2="56" gradientUnits="userSpaceOnUse">
      <stop stop-color="#0ea5e9"/>
      <stop offset="1" stop-color="#22c55e"/>
    </linearGradient>
    <linearGradient id="lineA" x1="14" y1="18" x2="50" y2="46" gradientUnits="userSpaceOnUse">
      <stop stop-color="#38bdf8"/>
      <stop offset="1" stop-color="#2563eb"/>
    </linearGradient>
    <linearGradient id="lineB" x1="14" y1="46" x2="50" y2="18" gradientUnits="userSpaceOnUse">
      <stop stop-color="#22c55e"/>
      <stop offset="1" stop-color="#14b8a6"/>
    </linearGradient>
  </defs>
  <rect x="5" y="5" width="54" height="54" rx="14" fill="url(#bg)"/>
  <path d="M14 22c9 0 9 20 18 20s9-20 18-20" fill="none" stroke="url(#lineA)" stroke-width="5.5" stroke-linecap="round"/>
  <path d="M14 42c9 0 9-20 18-20s9 20 18 20" fill="none" stroke="url(#lineB)" stroke-width="5.5" stroke-linecap="round"/>
  <circle cx="14" cy="22" r="4" fill="#dbeafe"/>
  <circle cx="14" cy="42" r="4" fill="#dcfce7"/>
  <circle cx="50" cy="22" r="4" fill="#dbeafe"/>
  <circle cx="50" cy="42" r="4" fill="#dcfce7"/>
  <rect x="25" y="20" width="14" height="24" rx="5" fill="#0f172a" opacity=".86"/>
  <path d="M32 18v28" stroke="#ffffff" stroke-width="2.4" stroke-linecap="round"/>
  <path d="M27 29h10M27 36h10" stroke="#ffffff" stroke-width="2.4" stroke-linecap="round"/>
  <text x="76" y="30" fill="#0f172a" font-family="Inter, Segoe UI, Arial, sans-serif" font-size="22" font-weight="800">MT5 Hedge</text>
  <text x="77" y="48" fill="#64748b" font-family="Inter, Segoe UI, Arial, sans-serif" font-size="12" font-weight="600">Hyperliquid + MT5 Arbitrage</text>
</svg>
